<?xml version="1.0" encoding="utf-8"?>
<!-- Generator: Adobe Illustrator 27.5.0, SVG Export Plug-In . SVG Version: 6.00 Build 0)  -->
<svg version="1.1" id="Layer_1" xmlns="http://www.w3.org/2000/svg" xmlns:xlink="http://www.w3.org/1999/xlink" x="0px" y="0px"
	 viewBox="0 0 416.168 414.951" style="enable-background:new 0 0 416.168 414.951;" xml:space="preserve">
<g>
	<path style="fill:#FFFFFF;" d="M407.431,13.994c-1.069,0.633-1.923,1.817-2.775,2.767c-0.693,1.22-1.384,2.441-2.078,3.659
		c-7.136,10.29-13.733,20.936-20.573,31.426c-7.477,11.464-15.033,22.882-22.649,34.254c-15.171,22.646-30.812,44.967-45.862,67.688
		c-6.084,9.183-11.807,18.511-17.372,28.01c-2.702,4.61-5.782,8.976-8.699,13.447c-1.38,2.116-2.739,4.241-4.071,6.388
		c-0.326,0.523-0.635,1.042-0.964,1.551c-1.849-1.813-3.681-3.639-5.318-5.656c-0.472-0.579-0.918-1.181-1.343-1.799h0.001
		c-1.099-1.092-2.14-2.234-2.964-3.553c-1.111-1.776-2.156-3.609-3.151-5.471c-2.575-4.415-5.007-8.913-7.539-13.355
		c-4.026-7.061-8.222-13.97-12.499-20.883c-4.179-6.756-7.657-13.914-11.619-20.8c-1.155-2.007-2.321-3.989-3.581-5.915
		c-15.517-2.241-30.793-5.901-46.025-9.575c-6.479-1.563-12.959-3.128-19.464-4.58c-6.509-1.455-13.066-2.648-19.585-4.048
		c-6.482-1.391-12.943-2.847-19.482-3.958c-4.12-0.699-8.276-1.316-12.352-2.259c4.222,7.457,8.633,14.813,13.214,22.047
		c1.607,2.538,3.214,5.077,4.795,7.635c1.354,2.192,2.978,4.393,3.807,6.854c0.967,2.87,1.144,5.891,0.941,8.896
		c0.289,4.157,0.481,8.322,0.705,12.483c0.226,4.21,0.494,8.415,0.906,12.611c0.001,0.016,0.003,0.03,0.004,0.045
		c-2.734-6.842-5.451-13.689-8.042-20.593c-2.368-6.307-4.876-12.543-7.411-18.785c-1.218-2.997-2.373-6.01-3.582-9
		c-3.116-1.255-6.185-2.62-9.267-3.958c-11.119-3.779-22.193-7.688-33.214-11.745c-1.287,0.902-2.588,1.784-3.907,2.636
		c-3.881,3.271-7.721,6.595-11.587,9.884c-9.069,7.711-17.926,15.586-26.617,23.721c-8.95,8.378-17.809,16.851-26.747,25.24
		c-0.379,0.356-0.749,0.716-1.125,1.074c-0.702,0.865-1.439,1.724-2.021,2.665c1.378-0.157,2.799,0.099,4.207,0.175
		c3.971-0.823,7.914-1.75,11.852-2.721c8.377-2.064,16.673-4.434,25.042-6.525c8.403-2.101,16.885-3.851,25.345-5.702
		c1.733-0.38,3.486-0.722,5.243-1.06c-0.383,2.313-3.736,69.395-3.773,70.606c1.705,6.172,3.661,12.281,5.405,18.438
		c1.077,3.802,1.96,7.653,3.02,11.459c0.818,2.938,1.706,5.86,2.37,8.837c1.328,4.397,2.675,8.788,4.053,13.167
		c4.014,12.747,8.709,25.252,13.052,37.888c4.337,12.622,7.95,25.469,11.752,38.255c1.333,4.483,2.897,8.882,4.473,13.277
		c0.521,1.297,1.041,2.595,1.584,3.883c0.468,1.112,0.957,2.213,1.444,3.314c1.47-0.668,3.022-1.181,4.516-1.794
		c2.372-1.138,4.702-2.339,6.987-3.518c3.474-1.792,6.962-3.578,10.423-5.415c2.16,5.722,4.426,11.395,6.838,17.037
		c1.595,3.732,3.098,7.485,4.563,11.253c1.226,2.114,1.851,4.602,2.861,6.806c0.039,0.084,0.078,0.169,0.117,0.253
		c0.027-0.005,0.053-0.011,0.081-0.014c1.912-0.795,3.852-1.519,5.815-2.18c0.334-0.168,0.667-0.337,1.001-0.502
		c9.833-4.86,19.936-9.194,29.82-13.957c22.628-10.903,45.319-21.678,68.03-32.407c6.818-0.235,13.638-0.485,20.449-0.846
		c9.403-0.497,18.784-1.29,28.196-1.637c6.116-0.224,12.503,0.234,18.689-0.357c1.641-0.252,3.285-0.489,4.916-0.784
		c0.479-1.409,1.029-2.8,1.637-4.155c0.063-0.347,0.128-0.691,0.203-1.031c0.448-2.021,1.046-4.006,1.66-5.981
		c1.192-3.826,2.415-7.675,3.978-11.368c1.027-2.43,2.208-4.858,3.27-7.33c2.602,1.262,5.207,2.514,7.822,3.756
		c4.483,2.132,8.968,4.261,13.422,6.452c1.511,0.745,3.012,1.524,4.511,2.309c1.333,0.484,2.616,1.076,3.887,1.697
		c-0.996-2.552-2.126-5.058-3.123-7.61c-1.83-4.683-3.3-9.512-4.886-14.279c-1.567-4.71-3.259-9.351-5.049-13.98
		c-1.356-3.5-2.664-7.029-3.613-10.659c-0.452-1.291-0.903-2.581-1.339-3.875c0.189-0.126,0.351-0.303,0.436-0.516
		c1.685-4.25,2.911-8.643,4.721-12.864c1.908-4.447,3.82-8.894,5.748-13.331c2.838-6.536,5.886-12.981,9.02-19.383
		c2.067-5.166,4.416-10.223,6.998-15.151c0.608-4.65,1.236-9.298,2.256-13.862c0.405-2.864,0.861-5.724,1.213-8.556
		c1.685-13.544,3.165-27.12,4.677-40.686c3.047-27.292,5.9-54.599,8.569-81.93c0.746-7.632,1.495-15.264,2.3-22.89
		c0.817-7.723,1.846-15.38,2.138-23.147c0.18-4.791,0.284-9.582,0.584-14.363c0.04-0.076,0.078-0.153,0.119-0.229
		C407.722,14.869,407.587,14.43,407.431,13.994z"/>
	<g>
		<path d="M70.102,136.282c-9.325,7.917-18.207,16.319-27.836,23.88c-0.441,0.347-0.277,1.115,0.285,0.686
			c9.792-7.473,19.141-15.578,28.244-23.871C71.472,136.361,70.774,135.712,70.102,136.282z"/>
		<path d="M75.998,127.187c-8.936,7.711-18.245,14.918-27.347,22.426c-0.43,0.354-0.265,1.13,0.285,0.686
			c9.215-7.434,19.241-14.146,27.624-22.549C77.083,127.225,76.541,126.717,75.998,127.187z"/>
		<path d="M76.882,122.197c-9.822,7.298-19.245,15.157-28.347,23.335c-0.507,0.455,0.017,0.948,0.518,0.519
			c9.199-7.874,18.843-15.183,28.288-22.751C78.037,122.741,77.802,121.513,76.882,122.197z"/>
		<path d="M183.105,359.261c-2.504,4.94-6.343,9.047-9.24,13.743c-3.197,5.183-5.777,10.692-8.273,16.239
			c-0.257,0.57,0.528,0.429,0.72,0.05c2.915-5.785,5.988-11.47,9.427-16.961c2.728-4.354,6.796-7.991,8.07-13.119
			C183.936,358.696,183.233,359.006,183.105,359.261z"/>
		<path d="M196.82,360.023c-6.717,9.208-13.143,18.596-18.749,28.533c-0.371,0.655,0.425,0.859,0.744,0.313
			c5.738-9.815,12.42-19.029,18.452-28.659C197.514,359.819,197.039,359.725,196.82,360.023z"/>
		<path d="M407.431,13.994c-1.069,0.633-1.923,1.817-2.775,2.767c-0.693,1.22-1.384,2.441-2.078,3.659
			c-7.135,10.29-13.733,20.936-20.573,31.426c-7.477,11.464-15.033,22.882-22.649,34.254
			c-15.169,22.646-30.812,44.967-45.862,67.688c-6.084,9.183-11.807,18.511-17.372,28.01c-2.702,4.61-5.782,8.976-8.699,13.447
			c-1.379,2.116-2.739,4.241-4.071,6.388c-0.326,0.523-0.635,1.042-0.964,1.551c-1.849-1.813-3.681-3.639-5.318-5.656
			c-0.471-0.579-0.918-1.181-1.343-1.799h0.002c-1.1-1.092-2.141-2.234-2.965-3.553c-1.111-1.776-2.155-3.609-3.151-5.471
			c-2.575-4.415-5.007-8.913-7.539-13.355c-4.025-7.061-8.222-13.97-12.499-20.883c-4.179-6.756-7.656-13.914-11.619-20.8
			c-1.155-2.007-2.321-3.989-3.581-5.915c-15.516-2.241-30.793-5.901-46.025-9.575c-6.479-1.563-12.959-3.128-19.463-4.58
			c-6.509-1.455-13.066-2.648-19.585-4.048c-6.482-1.391-12.943-2.847-19.482-3.958c-4.12-0.699-8.276-1.316-12.352-2.259
			c4.222,7.457,8.633,14.813,13.214,22.047c1.607,2.538,3.214,5.077,4.795,7.635c1.354,2.192,2.978,4.393,3.807,6.854
			c0.967,2.87,1.144,5.891,0.941,8.896c0.289,4.157,0.481,8.322,0.705,12.483c0.226,4.21,0.494,8.415,0.906,12.611
			c0.001,0.016,0.003,0.03,0.004,0.045c-2.734-6.842-5.451-13.689-8.042-20.593c-2.368-6.307-4.876-12.543-7.411-18.785
			c-1.218-2.997-2.373-6.01-3.582-9c-3.116-1.255-6.185-2.62-9.267-3.958c-11.119-3.779-22.193-7.688-33.214-11.745
			c-1.287,0.902-2.588,1.784-3.907,2.636c-3.881,3.271-7.721,6.595-11.587,9.884c-9.069,7.711-17.926,15.586-26.617,23.721
			c-8.95,8.378-17.809,16.851-26.747,25.24c-0.379,0.356-0.749,0.716-1.125,1.074c-0.702,0.865-1.439,1.724-2.021,2.665
			c1.378-0.157,2.799,0.099,4.207,0.175c3.971-0.823,7.914-1.75,11.852-2.721c8.377-2.064,16.673-4.434,25.042-6.525
			c4.552-1.138,9.128-2.172,13.709-3.177c0.057,0.177,0.236,0.258,0.522,0.052c0.104-0.074,0.203-0.156,0.306-0.232
			c3.602-0.786,7.207-1.557,10.808-2.345c1.733-0.38,3.486-0.722,5.243-1.06c-0.383,2.313-3.736,69.395-3.773,70.606
			c1.705,6.172,3.661,12.281,5.405,18.438c1.077,3.802,1.96,7.653,3.02,11.459c0.818,2.938,1.706,5.86,2.37,8.837
			c1.328,4.397,2.675,8.788,4.053,13.167c4.014,12.747,8.709,25.252,13.052,37.888c4.337,12.622,7.95,25.469,11.752,38.255
			c1.333,4.483,2.897,8.882,4.473,13.277c0.521,1.297,1.041,2.595,1.584,3.883c0.468,1.112,0.957,2.213,1.444,3.314
			c1.47-0.668,3.022-1.181,4.516-1.794c2.372-1.138,4.702-2.339,6.987-3.518c3.474-1.792,6.962-3.578,10.424-5.415
			c2.16,5.722,4.426,11.395,6.837,17.037c1.595,3.732,3.098,7.485,4.563,11.253c1.226,2.114,1.851,4.602,2.861,6.806
			c0.039,0.084,0.079,0.169,0.117,0.253c0.027-0.005,0.054-0.011,0.081-0.014c1.912-0.795,3.853-1.519,5.816-2.18
			c0.333-0.168,0.666-0.337,1-0.502c9.833-4.86,19.936-9.194,29.82-13.957c22.628-10.903,45.319-21.678,68.03-32.407
			c6.818-0.235,13.638-0.485,20.449-0.846c9.403-0.497,18.784-1.29,28.196-1.637c6.116-0.224,12.503,0.234,18.689-0.357
			c1.641-0.252,3.285-0.489,4.917-0.784c0.478-1.409,1.03-2.8,1.638-4.155c0.063-0.347,0.127-0.691,0.202-1.031
			c0.448-2.021,1.046-4.006,1.66-5.981c1.192-3.826,2.415-7.675,3.978-11.368c1.027-2.43,2.209-4.858,3.27-7.33
			c2.602,1.262,5.207,2.514,7.822,3.756c4.483,2.132,8.968,4.261,13.422,6.452c1.513,0.745,3.012,1.524,4.511,2.309
			c1.333,0.484,2.616,1.076,3.887,1.697c-0.996-2.552-2.126-5.058-3.123-7.61c-1.83-4.683-3.3-9.512-4.886-14.279
			c-1.567-4.71-3.259-9.351-5.049-13.98c-1.354-3.5-2.664-7.029-3.611-10.659c-0.454-1.291-0.902-2.581-1.341-3.875
			c0.189-0.126,0.351-0.303,0.436-0.516c1.685-4.25,2.911-8.643,4.721-12.864c1.908-4.447,3.82-8.894,5.748-13.331
			c2.84-6.536,5.886-12.981,9.02-19.383c2.068-5.166,4.416-10.223,7-15.151c0.606-4.65,1.236-9.298,2.254-13.862
			c0.405-2.864,0.861-5.724,1.213-8.556c1.685-13.544,3.165-27.12,4.677-40.686c3.047-27.292,5.9-54.599,8.569-81.93
			c0.554-5.68,1.119-11.359,1.701-17.036c0.231-0.187,0.46-0.373,0.692-0.558c0.358-0.285,0.269-0.882-0.236-0.566
			c-0.123,0.076-0.243,0.157-0.364,0.235c0.169-1.655,0.333-3.311,0.508-4.965c0.817-7.723,1.846-15.38,2.138-23.147
			c0.18-4.791,0.284-9.582,0.584-14.363c0.04-0.076,0.079-0.153,0.119-0.229C407.722,14.869,407.587,14.43,407.431,13.994z
			 M292.423,191.685c3.675-5.295,6.941-10.771,10.228-16.311c6.706-11.306,14.267-22.08,21.443-33.087
			c7.489-11.489,15.561-22.631,23.279-33.972c7.743-11.375,15.423-22.795,23.02-34.27c1.074-1.622,2.138-3.249,3.205-4.875
			c-12.967,21.411-25.864,42.836-37.681,64.915c-0.259,0.484-0.512,0.97-0.772,1.454c1.664-3.848,3.404-7.662,4.691-11.655
			c0.196-0.604-0.6-0.493-0.742-0.052c-1.678,5.147-4.179,9.947-6.12,14.99c-0.114,0.297,0.021,0.419,0.208,0.42
			c-6.67,12.581-13.189,25.243-19.737,37.89c-3.433,6.63-7.147,13.169-10.298,19.938c-2.707,5.814-4.854,12.385-9.399,17.085
			c-0.104,0.105-0.19,0.213-0.265,0.319c-0.508-0.534-1.025-1.061-1.54-1.591c1.203-4.343,2.011-8.834,3.029-13.207
			c1.306-5.603,2.719-11.192,4.491-16.667c0.134-0.412-0.401-0.333-0.506-0.035c-1.773,5.029-3.187,10.151-4.455,15.328
			c-1.118,4.562-2.352,9.148-3.359,13.752c-1.223-1.253-2.45-2.503-3.67-3.757c1.036-4.796,2.154-9.547,3.336-14.313
			C291.348,193.218,291.89,192.455,292.423,191.685z M283.475,204.117c0.382-0.391,0.729-0.837,1.079-1.256
			c0.844-1.008,1.507-2.168,2.267-3.241c0.961-1.36,1.926-2.718,2.89-4.075c-1.161,3.882-2.464,7.822-3.146,11.816
			c-0.139-0.145-0.279-0.286-0.418-0.432c-0.896-0.936-1.817-1.844-2.742-2.75C283.437,204.152,283.462,204.13,283.475,204.117z
			 M273.402,196.825c0.195,0.38,0.401,0.755,0.612,1.128c-3.109,2.459-5.794,5.309-8.524,8.221c-3.051,3.252-6.266,6.34-9.496,9.413
			c-5.776,5.494-11.885,10.976-16.469,17.541c-0.273,0.392,0.189,0.635,0.472,0.316c10.897-12.169,24.831-21.261,34.656-34.407
			c2.113,3.427,4.844,6.534,7.82,9.375c1.856,1.771,3.514,3.776,5.357,5.572c2.029,1.98,4.065,3.953,6.087,5.939
			c1.695,1.667,3.304,3.401,4.916,5.148c1.119,1.214,2.306,2.592,3.894,3.092l-1.973,0.553c-6.072,1.699-12.125,3.67-18.262,5.114
			c-12.004,2.823-23.995,5.695-35.976,8.61c-5.322,1.295-10.577,2.974-15.77,4.721c-0.301,0.108-0.602,0.214-0.902,0.326
			c-1.331,0.497-2.629,1.063-3.937,1.609c-1.991,2.439-4.04,4.84-5.906,7.361c-0.837,1.228-1.588,2.478-2.325,3.841
			c-2.303,4.261-4.477,8.579-6.615,12.922c-4.461,3.038-9.003,5.922-13.71,8.59c-0.97,0.549-1.951,1.079-2.935,1.603
			c1.877-2.797,3.029-6.255,4.47-9.242c0.988-2.049,2.039-4.075,3.078-6.1c1.105-2.153,2.265-4.278,3.508-6.354
			c0.653-1.091,2.049-4.352,3.424-4.724c0.294-0.081,0.861-0.84,0.277-0.869c-1.409-0.069-2.528,1.674-3.285,2.619
			c-1.777,2.219-3.248,4.679-4.698,7.117c-1.197,2.016-2.359,4.063-3.479,6.124c-1.089,2.005-2.108,4.047-3.116,6.096
			c-0.985,2.004-2.174,4.022-2.791,6.177c-0.064,0.224-0.064,0.388-0.027,0.513c-0.178,0.095-0.352,0.192-0.51,0.307
			c-0.338,0.243-0.676,0.488-1.011,0.736c-0.079,0.04-0.142,0.072-0.195,0.103c-0.226-0.206-0.482-0.586-0.597-0.715
			c-0.579-0.655-1.23-1.246-1.836-1.876c-0.845-0.877-1.573-1.847-2.126-2.915c-0.319-0.35-0.649-0.688-1.002-0.992
			c0.896,3.308,2.633,6.432,4.497,9.362c5.226-2.654,10.353-5.51,15.614-8.097c1.41-0.881,2.796-1.799,4.132-2.776
			c-4.383,8.771-9.053,17.39-13.774,25.986c-5.031,9.158-9.8,18.492-15.147,27.469c-2.602,4.368-5.288,8.685-7.778,13.12
			c-0.904,1.611-1.923,3.302-2.886,5.045c0.571-5.125,1.134-10.248,1.7-15.375c1.503-13.622,3.145-27.235,4.421-40.881
			c0.551-5.904,0.967-11.827,1.221-17.749c0.147-3.444,0.232-6.893,0.475-10.331c0.066-0.22,0.084-0.44,0.045-0.651
			c0.164-2.143,0.397-4.281,0.754-6.409c0.214-1.274,0.501-2.543,0.841-3.795c-0.006-0.831-0.028-1.661-0.07-2.489
			c-0.063,0.059-0.117,0.126-0.152,0.201c-1.27,2.689-2.173,5.473-2.839,8.316c-1.727-4.634-3.635-9.201-5.214-13.891
			c-2.187-6.491-4.711-12.891-7.105-19.309c-0.131-0.354-0.265-0.708-0.398-1.061c2.04,1.104,4.414,1.71,6.584,2.329
			c4.037,1.151,8.094,2.187,12.219,2.969c11.103,2.107,22.447,4.316,33.767,4.604c0.505,0.012,1.194-0.98,0.474-1.085
			c-5.154-0.757-10.239-1.935-15.347-2.947c-5.393-1.069-10.838-1.852-16.257-2.763c-4.22-0.707-8.305-1.805-12.472-2.734
			c-2.606-0.583-5.39-1.162-7.992-2.071c3.986-0.009,7.912-0.574,11.879-1.227c5.28-0.871,10.516-1.821,15.822-2.538
			c5.395-0.727,10.767-1.623,16.165-2.327c5.36-0.7,10.691-0.98,15.908-2.493c5.046-1.464,9.958-3.563,14.727-5.752
			c5.109-2.347,10.338-4.412,15.594-6.406c4.947-1.876,9.9-3.686,14.944-5.275C270.34,197.918,271.9,197.434,273.402,196.825z
			 M214.459,213.836c-2.273,0.243-4.55,0.445-6.8,0.747c-0.104,0.014-0.208,0.03-0.312,0.044c1.757-1.958,3.353-4.095,4.955-6.137
			c0.667-0.852,1.333-1.703,2.001-2.553c0.783,1.547,1.614,3.063,2.516,4.526c-0.835,0.947-1.63,1.917-2.33,2.932
			C214.376,213.561,214.385,213.728,214.459,213.836z M212.263,206.914c-2.15,2.702-4.444,5.291-6.639,7.954
			c-1.52,0.215-3.038,0.437-4.555,0.665c4.257-4.062,7.77-8.886,11.301-13.673c0.467,1.043,0.949,2.076,1.449,3.099
			C213.299,205.61,212.78,206.264,212.263,206.914z M140.703,134.637c-1.541-2.98-3.695-5.63-5.593-8.382
			c-2.314-3.354-4.435-6.836-6.793-10.167c-2.947-4.159-5.861-8.344-8.651-12.608c2.068,0.574,4.143,1.132,6.231,1.648
			c11.688,2.896,23.514,5.266,35.256,7.928c11.875,2.693,23.707,5.589,35.639,8.021c5.955,1.215,11.954,2.109,17.959,3.027
			c2.711,0.414,5.42,0.836,8.12,1.319c2.682,0.48,5.524,1.435,8.277,1.49c1.251,1.986,2.488,3.972,3.599,6.002
			c3.948,7.212,7.236,14.802,11.525,21.816c4.101,6.707,8.154,13.393,12.049,20.22c3.838,6.727,7.67,13.457,11.897,19.947
			c-1.056,0.392-2.134,0.76-3.248,1.102c-1.842,0.563-3.668,1.18-5.486,1.826c1.404-1.31,2.821-2.61,4.062-4.077
			c0.342-0.404-0.062-0.831-0.416-0.416c-1.448,1.698-3.163,3.127-4.706,4.733c-0.059,0.062-0.091,0.122-0.112,0.181
			c-2.46,0.891-4.905,1.826-7.349,2.744c-0.322,0.121-0.642,0.25-0.964,0.375c1.463-1.774,2.864-3.628,4.587-5.092
			c1.764-1.499,3.678-3.238,4.462-5.48c0.243-0.695-0.679-0.561-0.862-0.061c-0.934,2.577-3.352,3.919-5.091,5.859
			c-1.632,1.819-3.354,3.604-4.928,5.485c-6.847,2.734-13.604,5.938-20.576,8.362c4.65-4.008,8.274-9.471,12.366-13.916
			c4.657-5.061,10.594-9.172,14.284-15.056c0.371-0.594-0.375-0.772-0.686-0.287c-3.679,5.734-9.579,9.809-14.249,14.689
			c-2.507,2.62-4.811,5.429-7.201,8.154c-2.264,2.58-4.724,4.903-7.17,7.298c-1.327,0.416-2.664,0.801-4.012,1.142
			c-2.581,0.653-5.227,1.015-7.885,1.307c0.854-0.693,1.651-1.48,2.411-2.315c0.078,0.119,0.152,0.241,0.229,0.359
			c0.509,0.767,1.766-0.283,1.48-1.014c-0.118-0.302-0.242-0.601-0.361-0.901c0.875-1.049,1.723-2.119,2.583-3.123
			c2.217-2.593,4.436-5.183,6.756-7.684c4.767-5.135,9.971-9.826,14.614-15.09c0.303-0.345-0.04-0.705-0.358-0.359
			c-4.561,4.966-9.46,9.604-14.256,14.339c-2.42,2.392-4.619,5.019-6.847,7.585c-0.936,1.081-1.946,2.142-2.946,3.215
			c-0.712-1.724-1.461-3.435-2.227-5.141c1.443-1.801,2.914-3.577,4.461-5.295c5.057-5.618,10.87-10.53,15.019-16.92
			c0.271-0.42-0.258-0.541-0.487-0.204c-4.365,6.393-10.42,11.328-15.619,16.998c-1.319,1.438-2.581,2.926-3.816,4.435
			c-0.492-1.086-0.986-2.17-1.481-3.256c1.707-2.275,3.448-4.513,5.311-6.618c6.598-7.461,14.252-13.927,20.286-21.893
			c0.341-0.449-0.271-0.584-0.545-0.23c-6.226,8.01-14.09,14.498-20.883,21.99c-1.633,1.803-3.185,3.677-4.702,5.578
			c-0.946-2.078-1.884-4.159-2.773-6.26c-2.759-6.518-5.395-13.087-8.228-19.573c-2.887-6.61-5.991-13.129-8.958-19.703
			c-2.251-4.988-4.892-9.96-6.929-15.088c5.222-0.377,10.453-1.695,15.586-2.39c6.92-0.933,13.985-1.372,20.695-3.432
			c0.378-0.116,0.831-0.957,0.17-0.86c-6.301,0.907-12.623,1.49-18.953,2.141c-6.098,0.626-12.138,2.177-18.259,2.528
			c-0.22-0.611-0.433-1.226-0.632-1.842c-0.204-0.636-1.262,0.204-1.106,0.758c0.106,0.381,0.219,0.761,0.334,1.141
			c-6.341,0.188-12.804-0.388-19.143-0.564c-3.282-0.091-6.56-0.273-9.842-0.34c-1.563-0.031-3.125-0.033-4.687-0.092
			c-1.444-0.054-2.943,0.578-4.187-0.479c-0.231-0.198-0.661,0.233-0.469,0.466c1.279,1.545,3.877,1.167,5.666,1.343
			c3.216,0.313,6.466,0.503,9.692,0.672c6.997,0.364,13.993,0.708,20.992,1.023c0.877,0.04,1.756,0.039,2.635,0.009
			c1.784,5.253,4.212,10.406,6.366,15.456c2.843,6.663,5.773,13.292,8.684,19.925c2.846,6.485,5.46,13.069,8.183,19.605
			c1.087,2.608,2.162,5.276,3.31,7.915c-0.816,1.051-1.629,2.104-2.444,3.156c-3.204,4.138-6.565,8.094-9.992,12.041
			c-2.37,0.362-4.74,0.729-7.111,1.077c-10.321,1.52-20.423,4.513-30.815,5.53c-0.996-2.654-2.001-5.305-3.008-7.953
			c2.641-2.377,4.072-5.825,5.699-8.921c2.358-4.488,5.223-8.851,7.899-13.158c2.604-4.196,5.579-8.146,8.471-12.146
			c1.524-2.107,3.035-4.225,4.512-6.365c0.735-1.066,1.458-2.137,2.141-3.237c0.269-0.438,0.537-0.876,0.802-1.316
			c0.066-0.111,0.106-0.31,0.098-0.46c0.087-0.075,0.173-0.149,0.26-0.225c0.174-0.149,0.028-0.422-0.17-0.256
			c-1.159,0.962-2.022,2.711-2.88,3.944c-1.492,2.142-3.042,4.241-4.599,6.335c-2.949,3.968-6.016,7.859-8.767,11.969
			c-2.784,4.159-5.313,8.488-7.938,12.748c-2.053,3.331-3.683,6.843-5.917,10.058c-1.19-3.127-2.386-6.252-3.587-9.374
			c0.678-1.099,1.274-2.262,1.859-3.314c1.597-2.878,3.122-5.793,4.912-8.558c3.742-5.784,7.669-11.486,11.643-17.113
			c0.315-0.446-0.265-0.564-0.526-0.221c-4.073,5.334-7.868,10.849-11.788,16.292c-1.83,2.542-3.325,5.32-4.87,8.037
			c-0.584,1.027-1.259,2.041-1.932,3.057c-0.782-2.03-1.558-4.063-2.346-6.092c1.847-2.82,3.357-5.949,4.961-8.877
			c1.989-3.628,3.944-7.272,5.93-10.901c0.177-0.323-0.31-0.34-0.445-0.102c-2.063,3.609-4.101,7.235-6.163,10.847
			c-1.511,2.646-3.231,5.245-4.71,7.936c-0.689-1.771-1.377-3.542-2.069-5.31c1.968-3.071,3.689-6.357,5.605-9.447
			c2.146-3.466,4.247-6.957,6.105-10.588c0.181-0.354-0.331-0.271-0.46-0.032c-2.033,3.781-4.34,7.394-6.673,10.995
			c-1.651,2.549-3.569,5.134-5.049,7.861c-0.824-2.1-1.655-4.196-2.489-6.291c-0.125-3.839-0.937-7.772-1.307-11.578
			c-0.409-4.205-0.628-8.425-0.834-12.643c-0.205-4.197-0.384-8.394-0.686-12.585C142.852,141.559,142.499,138.109,140.703,134.637z
			 M51.358,161.092c3.696-2.592,6.979-5.798,10.391-8.726c4.916-4.218,10.364-7.951,14.876-12.613
			c0.491-0.508,0.133-1.335-0.543-0.819c-4.797,3.656-9.412,7.632-13.954,11.602c-4.118,3.598-7.891,7.775-12.363,10.948
			c-0.214,0.053-0.428,0.104-0.641,0.158c-8.396,2.113-16.699,4.594-25.078,6.778c-3.94,1.028-7.887,2.036-11.836,3.03
			c8.975-8.434,17.863-16.96,26.834-25.399c8.858-8.333,17.842-16.487,27.011-24.477c4.043-3.525,7.993-7.151,11.999-10.715
			c-0.13,8.287,1.336,16.631,2.342,24.809c0.35,2.845,0.657,5.691,0.94,8.541c-2.698,2.465-5.554,4.708-8.356,7.056
			c-2.383,1.996-4.501,4.29-6.763,6.418C61.251,158.76,56.294,159.881,51.358,161.092z M67.917,157.314
			c1.889-1.712,3.727-3.487,5.696-5.096c2.612-2.134,5.627-3.98,7.866-6.54c0.027,0.285,0.056,0.569,0.083,0.854
			c0.569,2.444,1.12,4.888,0.99,7.42c-0.006,0.125-0.091,0.193-0.208,0.208c-0.032,0.004-0.064,0.01-0.096,0.015
			c0.003,0.029,0.005,0.058,0.007,0.087l-0.321,0.067c0.003-0.036,0.006-0.072,0.009-0.108c-0.5,0.084-0.993,0.2-1.487,0.296
			c-0.008,0.044-0.016,0.09-0.023,0.132C76.262,155.537,72.087,156.415,67.917,157.314z M134.713,368.424
			c-3.148,1.676-6.33,3.227-9.538,4.726c-0.966-3.219-2.191-6.381-3.272-9.483c-2.188-6.283-4.001-12.672-5.861-19.058
			c-3.724-12.789-7.633-25.477-12.077-38.037c-4.479-12.657-8.863-25.303-12.779-38.149c-3.911-12.825-7.771-25.666-12.046-38.378
			c-0.236-0.702-0.467-1.406-0.701-2.108c0.019-0.171,0.039-0.342,0.059-0.511c0.503-4.265,0.783-8.554,0.982-12.842
			c0.41-8.861,0.27-17.735,0.386-26.601c0.061-4.567,0.392-9.138,0.593-13.701c0.174-3.946,0.175-7.936,0.613-11.861
			c0.206-1.847,0.443-3.691,0.637-5.538c0.253-0.05,0.506-0.099,0.759-0.148c0.294,3.472,0.582,6.945,0.891,10.417
			c0.94,10.547,2.057,21.078,3.247,31.599c0.045,0.396,0.088,0.796,0.133,1.192c-1.027,5.884-5.077,10.505-6.563,16.194
			c-0.2,0.767,0.855,0.311,1.047-0.07c2.097-4.16,4.834-8.793,5.804-13.541c0.092,0.826,0.184,1.651,0.276,2.477
			c0.219,1.057,0.416,2.118,0.605,3.181c-2.175,5.45-5.848,10.672-6.61,16.559c-0.105,0.813,0.93,0.274,1.067-0.208
			c1.465-5.167,3.904-9.878,5.804-14.857c0.459,2.722,0.856,5.453,1.269,8.182c-1.938,4.274-4.065,8.719-5.287,13.255
			c-0.17,0.63,0.717,0.268,0.875-0.061c1.824-3.793,3.085-7.896,4.618-11.837c0.156,1.009,0.315,2.017,0.483,3.022
			c0.524,3.137,1.098,6.267,1.606,9.406c0.939,2.646,1.956,5.266,2.994,7.864c0.902,2.137,1.833,4.261,2.79,6.374
			c0.046,0.101,0.008,0.194-0.057,0.253c0.549,1.279,1.11,2.555,1.675,3.828c-0.539,3.081-1.828,6.045-2.826,8.998
			c-1.034,3.057-2.098,6.2-2.758,9.359c-0.144,0.689,0.784,0.309,0.95-0.063c1.326-2.986,1.984-6.257,2.935-9.373
			c0.774-2.532,1.735-5.086,2.243-7.704c1.17,2.616,2.357,5.225,3.536,7.837c-0.862,2.169-1.918,4.268-2.715,6.464
			c-1.124,3.097-2.233,6.313-3.049,9.5c-0.176,0.69,0.752,0.252,0.925-0.063c1.689-3.083,2.271-6.79,3.402-10.097
			c0.565-1.652,1.268-3.22,1.882-4.819c0.646,1.435,1.273,2.878,1.89,4.325c-0.784,2.512-1.767,4.957-2.729,7.405
			c-1.005,2.558-2.247,5.236-2.632,7.975c-0.101,0.717,0.835,0.361,0.998-0.067c1.064-2.816,1.896-5.718,2.958-8.539
			c0.697-1.853,1.35-3.711,1.9-5.605c0.43,1.019,0.854,2.041,1.276,3.062c-0.46,2.878-2.079,5.746-2.955,8.499
			c-1.038,3.26-1.883,6.584-2.815,9.875c-0.206,0.726,0.87,0.361,1.048-0.071c1.317-3.204,2.061-6.576,3.044-9.892
			c0.663-2.232,1.748-4.458,2.357-6.751c1.045,2.561,2.076,5.129,3.11,7.694c-0.71,2.499-2.42,5.033-3.22,7.234
			c-1.493,4.103-2.738,8.395-3.729,12.645c-0.225,0.963,1.148,0.486,1.367-0.092c1.77-4.652,2.637-9.609,4.281-14.312
			c0.487-1.392,1.247-2.767,1.828-4.174c1.161,2.871,2.342,5.733,3.533,8.59c-1.105,3.23-2.438,6.383-3.698,9.554
			c-1.367,3.439-2.822,7.103-3.042,10.831c-0.045,0.774,1.101,0.046,1.206-0.381c0.993-4.007,2.073-7.87,3.553-11.734
			c0.886-2.314,1.781-4.609,2.528-6.959c0.636,1.521,1.276,3.042,1.915,4.563c-0.212,0.108-0.419,0.345-0.413,0.552
			c0.093,2.772-1.604,5.436-2.435,8.028c-0.856,2.673-1.778,5.285-2.915,7.854c-0.356,0.805,0.731,0.588,1.002,0.07
			c1.325-2.535,2.14-5.271,2.976-7.996c0.746-2.434,2.166-4.826,2.249-7.405c0.723,1.717,1.446,3.434,2.17,5.15
			c-0.5,2.913-2.153,5.844-2.981,8.556c-1.3,4.258-2.611,8.494-3.969,12.733c-0.239,0.75,0.644,0.518,0.885,0.064
			c2.117-3.985,2.92-8.692,4.135-13.003c0.64-2.27,1.857-4.673,2.453-7.106c0.685,1.629,1.366,3.259,2.047,4.889
			c-0.082,0.092-0.141,0.192-0.159,0.299c-1.233,7.166-3.483,14.074-5.288,21.103c-0.197,0.767,0.917,0.283,1.066-0.209
			c1.973-6.469,3.848-13.003,5.015-19.674c0.938,2.252,1.868,4.507,2.79,6.764c-1.075,2.896-2.138,5.895-2.929,8.86
			c-0.965,3.619-1.603,7.305-3.027,10.789c-0.26,0.64,0.587,0.48,0.791,0.057c1.601-3.335,2.609-6.906,3.605-10.458
			c0.584-2.081,1.896-4.425,2.576-6.747c0.142,0.358,0.284,0.715,0.428,1.071c-0.794,1.972-0.979,4.261-1.595,6.301
			c-0.724,2.398-1.688,4.722-2.339,7.141c-0.67,2.485-1.21,5-1.79,7.507c-0.234,1.013-0.668,2.132-0.717,3.169
			c-0.008,0.162-0.018,0.573-0.06,0.903c-0.123,0.084-0.235,0.217-0.25,0.306c-0.038,0.219-0.072,0.333-0.048,0.535
			c0.025,0.215,0.252,0.285,0.433,0.189c0.695-0.365,0.825-1.442,0.986-2.132c0.673-2.865,1.725-5.697,2.545-8.526
			c0.907-3.128,2.058-6.14,3.112-9.218c0.298-0.87,0.704-1.898,1.006-2.954c1.264,3.215,2.497,6.442,3.711,9.678
			c-0.094-0.094-0.203-0.182-0.337-0.249c-0.248-0.129-0.577,0.165-0.661,0.374c-0.622,1.546-0.884,3.23-1.358,4.848
			c-0.6,2.05-1.275,4.006-1.667,6.11c-1.224,6.577-2.865,13.058-3.725,19.701c-0.089,0.691,0.852,0.281,0.94-0.184
			c1.297-6.944,3.207-13.755,4.698-20.656c0.47-2.179,1.356-4.249,2.012-6.378c0.209-0.678,0.538-1.642,0.514-2.458
			c0.457,1.224,0.906,2.45,1.358,3.675c-0.703,1.666-0.911,3.602-1.191,5.332c-0.423,2.617-0.931,5.219-1.354,7.836
			c-0.755,4.662-0.947,9.571-3.21,13.828c-0.229,0.433,0.39,0.417,0.576,0.134c2.527-3.859,3.131-8.645,3.934-13.091
			c0.454-2.519,1.01-5.014,1.448-7.535c0.228-1.317,0.467-2.63,0.743-3.938c0.903,2.473,1.795,4.949,2.682,7.428
			c-0.552,1.935-1.126,3.859-1.727,5.781c-0.892,2.854-1.045,5.934-1.73,8.843c-0.168,0.714,0.859,0.272,0.99-0.193
			c0.876-3.11,1.246-6.368,2.341-9.416c0.335-0.933,0.657-1.86,0.919-2.799c0.823,2.311,1.645,4.623,2.461,6.936
			c0.988,2.803,1.998,5.589,3.03,8.369C141.139,364.858,137.944,366.705,134.713,368.424z M151.765,373.67
			c-1.303-3.151-2.542-6.326-3.741-9.516c0.016-0.01,0.032-0.017,0.048-0.027c-0.319-0.819-0.628-1.643-0.928-2.472
			c-0.012,0.007-0.025,0.014-0.038,0.021c-3.149-8.531-6.063-17.151-9.183-25.693c-4.712-12.897-10.037-25.488-15.311-38.159
			c-5.198-12.488-9.937-25.22-15.539-37.532c-0.719-1.58-1.441-3.157-2.164-4.735c-0.005-0.036-0.018-0.061-0.037-0.082
			c-3.57-7.796-7.143-15.595-10.267-23.582c-0.661-1.689-1.28-3.392-1.877-5.101c-0.04-4.342-1.162-8.729-1.83-12.979
			c-0.796-5.061-1.246-10.194-1.824-15.284c-1.195-10.522-2.302-21.057-3.256-31.605c-0.322-3.559-1.6-18.744-1.863-21.52
			c-0.44-2.768-0.878-5.532-1.235-8.302c-0.97-7.509-2.1-15.02-2.389-22.59c-0.17-1.574-0.334-3.148-0.478-4.724
			c2.245,0.943,4.488,1.887,6.77,2.763c5.258,2.022,10.432,4.247,15.691,6.255c3.971,1.518,14.696,4.955,18.018,6.138
			c0.526,1.647,1.015,3.313,1.581,4.936c1.162,3.326,2.433,6.617,3.676,9.914c4.676,12.406,9.103,24.922,14.215,37.157
			c4.04,9.674,7.869,19.426,11.603,29.215c-0.063,0.128-0.13,0.255-0.189,0.386c-0.249,0.553,0.165,0.699,0.559,0.589
			c5.884,15.458,11.537,31.005,17.403,46.472c1.619,4.271,3.377,8.484,4.842,12.814c0.082,0.24,0.215,0.393,0.376,0.487
			c-0.783,6.083-0.931,12.307-1.579,18.339c-1.452,13.531-2.82,27.068-4.346,40.593c-2.569,22.77-4.908,45.58-8.235,68.253
			C157.652,387.167,154.54,380.382,151.765,373.67z M186.303,386.704c-6.364,2.99-12.751,5.954-18.985,9.191
			c3.504-6.522,7.637-12.652,11.823-18.751c4.013-5.844,8.35-11.545,11.659-17.831c0.312-0.593-0.515-0.528-0.771-0.178
			c-4.319,5.921-8.324,12.088-12.41,18.173c-4.081,6.073-7.923,12.318-11.183,18.875c-0.042,0.084-0.056,0.149-0.053,0.202
			c-0.548,0.287-1.1,0.57-1.645,0.864c-0.532,0.283-1.064,0.567-1.597,0.853c1.251-7.997,2.157-16.075,3.148-24.043
			c1.139-1.737,2.619-3.386,3.557-4.821c2.553-3.91,5.786-7.711,7.374-12.143c0.237-0.663-0.53-0.574-0.814-0.188
			c-3.03,4.091-5.536,8.602-8.332,12.86c-0.431,0.655-0.977,1.404-1.53,2.203c0.552-4.465,1.079-8.935,1.592-13.405
			c0.073-0.073,0.141-0.15,0.192-0.229c0.496-0.754,0.938-1.537,1.354-2.335c7.139,0.885,14.691-0.068,21.777-0.446
			c5.295-0.282,10.591-0.485,15.888-0.69c-7.05,10.446-13.609,21.209-20.928,31.478
			C186.314,386.491,186.284,386.614,186.303,386.704z M258.417,352.478c-9.585,4.519-19.196,8.977-28.798,13.44
			c-4.553,2.116-9.081,4.277-13.602,6.459c2.004-3.14,4.112-6.205,6.317-9.208c2.075-2.824,3.535-6.048,5.691-8.814
			c0.177-0.227-0.115-0.377-0.286-0.19c-2.219,2.469-3.842,5.388-5.922,7.966c-2.579,3.193-4.726,6.806-6.842,10.315
			c-0.122,0.201-0.132,0.36-0.08,0.471c-3.272,1.582-6.542,3.171-9.811,4.76c4.852-6.839,11.182-12.585,15.156-20.028
			c0.318-0.597-0.534-0.565-0.792-0.183c-4.849,7.173-10.975,13.412-15.538,20.781c-3.783,1.84-7.567,3.679-11.361,5.498
			c-1.682,0.808-3.369,1.604-5.058,2.398c7.451-10.045,14.63-20.396,20.749-31.313c3.099-0.121,6.198-0.242,9.296-0.384
			c8.291-0.381,16.573-0.864,24.867-1.188c4.068-0.159,8.134-0.371,12.191-0.718c1.418-0.121,2.896-0.16,4.357-0.294
			C258.773,352.324,258.595,352.403,258.417,352.478z M341.516,326.767c-1.688,3.598-2.876,7.499-4.144,11.263
			c-0.625,1.851-1.187,3.723-1.681,5.612c-0.187,0.708-0.411,1.45-0.56,2.196c-6.896,0.292-13.784,0.159-20.687,0.47
			c-1.639,0.073-3.276,0.161-4.913,0.255c-14.639,2.156-29.458,2.764-44.243,3.244c5.842-2.045,16.201-6.561,17.55-7.151
			c7.577-3.327,15.396-6.218,23.065-9.336c8.783-3.566,18.514-6.188,26.351-11.668c0.697-0.488,0.818-2.047-0.34-1.487
			c-7.998,3.869-16.519,6.366-24.734,9.708c-7.91,3.219-16,6.246-23.762,9.801c-3.898,1.783-7.768,3.625-11.64,5.463
			c-2.146,1.021-4.279,2.072-6.422,3.098c-0.717,0.343-1.423,0.712-2.14,1.058c-0.018,0.003-0.036,0.007-0.054,0.01
			c1.564-9.022,2.739-18.109,4.172-27.152c0.769-4.855,1.62-9.666,2.67-14.47c1.06-4.848,1.916-9.754,2.026-14.723
			c0.015-0.712-1.092-0.101-1.155,0.364c-1.338,9.912-4.595,19.477-6.231,29.352c-0.817,4.941-1.4,9.909-2.15,14.856
			c-0.606,4.005-1.333,8.067-1.659,12.126c-5.976,0.805-12.165,0.884-18.125,1.115c-8.301,0.325-16.589,0.814-24.886,1.194
			c-15.811,0.727-31.6,1.762-47.402,2.563c0.429-0.88,0.85-1.765,1.298-2.634c1.187-2.302,2.481-4.543,3.801-6.769
			c2.73-4.601,5.601-9.115,8.381-13.685c5.536-9.102,10.413-18.621,15.541-27.956c5.26-9.577,10.234-19.284,14.881-29.174
			c2.256-4.798,4.295-9.686,6.42-14.543c1.084-2.475,3.041-4.807,4.249-7.342c2.79,1.507,5.552,3.064,8.413,4.479
			c-1.666,2.193-4.008,5.216-4.483,5.718c-2.642,2.787-4.791,6.339-6.972,9.49c-2.338,3.379-4.491,6.895-6.568,10.438
			c-0.271,0.463,0.292,0.6,0.525,0.222c4.417-7.126,9.219-14.117,14.59-20.56c1.311-1.572,2.595-3.195,3.761-4.884
			c1.264,0.611,2.535,1.214,3.807,1.814c-2.457,3.8-5.569,7.072-8.395,10.59c-3.651,4.545-6.357,9.917-9.639,14.732
			c-0.387,0.566,0.342,0.727,0.665,0.279c3.435-4.772,6.373-9.957,10.013-14.575c2.747-3.482,6.314-6.544,8.07-10.689
			c1.959,0.923,3.923,1.843,5.881,2.773c-2.296,2.991-5,5.703-7.412,8.587c-3.701,4.427-7.035,9.127-10.257,13.91
			c-0.359,0.533,0.328,0.691,0.626,0.262c3.423-4.901,6.962-9.72,10.909-14.219c1.706-1.947,3.412-3.879,5.155-5.797
			c0.663-0.727,1.32-1.493,1.873-2.319c1.061,0.506,2.118,1.018,3.172,1.535c-0.163,0.392-0.292,0.835-0.481,1.13
			c-0.452,0.704-1.096,1.338-1.669,1.948c-3.941,4.186-7.599,8.752-10.789,13.536c-0.458,0.688,0.425,0.894,0.804,0.339
			c2.759-4.047,5.908-7.781,9.108-11.48c1.227-1.416,3.258-3.135,3.725-5.126c0.938,0.465,1.874,0.931,2.803,1.41
			c0.471,0.242,0.939,0.488,1.409,0.733c1.073,0.771,2.051,1.659,2.84,2.842c-1.365,1.236-2.536,2.746-3.602,4.147
			c-2.298,3.022-4.244,6.294-6.958,8.98c-0.494,0.487,0.034,1.008,0.534,0.532c2.251-2.133,4.055-4.646,5.889-7.133
			c1.647-2.23,3.422-4.123,5.351-5.97l-0.001,0.001c-0.176,0.27,0.155,0.327,0.309,0.13c0.216-0.277,0.44-0.546,0.665-0.815
			c1.24,0.689,2.476,1.386,3.707,2.092c-0.553,0.612-1.285,1.111-1.878,1.684c-0.921,0.89-1.664,1.912-2.411,2.95
			c-1.956,2.708-3.653,5.595-5.607,8.305c-0.45,0.623,0.374,0.801,0.743,0.313c2.174-2.872,4.095-5.923,6.27-8.794
			c0.734-0.968,3.027-2.799,3.27-4.232c1.352,0.776,2.696,1.563,4.038,2.354c-1.426,1.899-2.92,3.731-4.379,5.619
			c-1.934,2.499-3.173,5.374-5.365,7.713c-0.419,0.446,0.04,0.918,0.474,0.475c2.132-2.177,3.708-4.761,5.376-7.293
			c1.4-2.121,3.345-3.892,4.718-6.028c1.131,0.67,2.258,1.349,3.384,2.026c-0.012,0.012-0.024,0.018-0.035,0.028
			c-2.138,2.31-3.79,5.056-5.694,7.554c-0.429,0.561,0.339,0.731,0.685,0.288c1.898-2.434,3.833-4.917,5.484-7.525
			c0.014-0.023,0.019-0.043,0.028-0.064c2.325,1.4,4.642,2.813,6.958,4.227c-1.827,2.13-3.34,4.547-5.284,6.582
			c-0.436,0.458,0.039,0.939,0.489,0.49c2.02-2.017,3.865-4.286,5.597-6.585c2.135,1.305,4.27,2.608,6.409,3.902
			c0.56,0.338,1.125,0.668,1.687,1.004c-2.022,2.189-3.788,4.64-5.193,7.234c-0.304,0.561,0.536,0.589,0.772,0.177
			c1.462-2.557,3.341-4.739,5.265-6.908c2.651,1.572,5.322,3.108,8.004,4.619c-1.848,3.1-3.455,6.344-5.837,9.093
			c-0.446,0.514,0.067,1.056,0.533,0.533c2.441-2.736,4.411-5.919,5.991-9.244c1.46,0.82,2.927,1.626,4.394,2.434
			c-1.155,2.047-2.224,4.146-3.539,6.107c-0.438,0.652,0.399,0.839,0.765,0.32c1.332-1.888,2.578-3.877,3.666-5.935
			c5.88,3.222,11.805,6.358,17.73,9.512c8.653,4.604,17.379,9.012,26.177,13.294C344.589,320.798,342.918,323.778,341.516,326.767z
			 M255.239,267.55c0.736,0.394,1.465,0.798,2.199,1.199c-0.258,0.191-0.508,0.395-0.752,0.607
			C256.26,268.685,255.776,268.09,255.239,267.55z M364.44,308.599c1.764,4.575,8.095,19.185,6.459,18.383
			c-5.31-2.605-13.719-7.778-19.069-10.304c-2.5-0.949-4.947-2.03-7.162-3.448c-10.036-4.932-19.874-10.265-29.73-15.544
			c-8.192-4.389-16.293-8.851-24.307-13.504c0.261-0.42-0.112-0.746-0.543-0.372c-0.014,0.012-0.026,0.024-0.04,0.036
			c-3.009-1.753-6.008-3.531-8.993-5.346c-11.14-6.772-22.289-13.353-34.097-18.897c-3.715-1.744-7.458-3.431-11.197-5.127
			c0.026-0.244-0.043-0.413-0.283-0.415c-0.079,0-0.201,0.065-0.294,0.154c-0.994-0.451-1.986-0.901-2.977-1.354
			c-1.673-0.765-3.318-1.747-4.995-2.662c0.154-0.051,0.308-0.102,0.459-0.147c5.755-1.748,11.614-3.485,17.504-4.716
			c12.226-2.556,24.409-5.307,36.615-7.955c6.116-1.327,12.162-3.173,18.202-4.81c6.036-1.636,12.07-3.276,18.106-4.913
			c6.061-1.645,12.125-3.283,18.19-4.912c0.471-0.127,0.952-0.246,1.435-0.364c0.611,1.994,2.689,8.913,5.444,18.051
			c-0.058,0.133-0.049,0.276,0.083,0.274C350.239,263.864,361.499,300.968,364.44,308.599z M404.781,26.958
			c-0.461,7.293-1.241,14.56-2.087,21.82c-3.413,3.979-7.512,7.069-11.407,10.576c-2.331,2.099-4.288,4.837-6.36,7.192
			c-2.237,2.541-4.508,5.056-6.84,7.511c-0.436,0.46,0.031,0.932,0.489,0.49c2.443-2.351,4.738-4.826,7.012-7.339
			c2.267-2.506,4.41-5.323,6.949-7.553c3.286-2.888,7.211-5.517,9.941-9.024c-0.376,3.188-0.76,6.375-1.133,9.563
			c-4.548,3.384-8.668,7.45-12.579,11.475c-4.994,5.136-9.574,10.667-14.038,16.262c-0.352,0.442,0.265,0.572,0.546,0.229
			c4.496-5.477,9.146-10.814,14.074-15.907c3.734-3.861,7.726-7.354,11.847-10.743c-0.265,2.287-0.523,4.575-0.764,6.863
			c-1.366,12.955-2.669,25.915-3.981,38.874c-13.987,10.347-27.114,22.213-38.708,35.165c-0.317,0.355,0.042,0.732,0.373,0.373
			c11.657-12.613,24.837-23.365,38.187-34.082c-0.874,8.614-1.756,17.227-2.662,25.837c-0.184-0.046-0.427,0.005-0.668,0.208
			c-4.485,3.767-9.225,7.231-13.591,11.136c-4.317,3.861-8.23,8.279-12.85,11.78c-0.449,0.34-0.285,1.103,0.286,0.686
			c4.532-3.309,8.184-7.602,12.554-11.101c4.734-3.791,9.768-7.458,14.159-11.651c-0.518,4.893-1.04,9.785-1.577,14.677
			c-1.62,14.717-3.437,29.413-5.03,44.133c-0.759,7.006-1.809,13.976-2.58,20.98c-0.077,0.701-0.122,1.416-0.147,2.142
			c-2.046,4.105-4.085,8.216-6.094,12.339c-4.192,8.599-8.215,17.274-11.881,26.112c-1.829,4.409-3.61,8.852-5.268,13.327
			c-1.13,3.05-2.417,6.509-2.883,9.886c-0.588-1.796-1.164-3.596-1.711-5.401c-1.626-5.366-3.213-10.745-4.869-16.101
			c-1.435-4.643-3.285-9.193-4.692-13.848c5.611-1.576,9.91-6.429,14.907-9.199c0.434-0.241,0.62-1.19-0.059-0.861
			c-5.234,2.552-9.387,7.719-15.052,9.362c-0.146-0.503-0.293-1.007-0.427-1.513c-0.179-0.674-0.349-1.354-0.519-2.034
			c7.748-3.905,14.347-9.874,21.605-14.57c0.427-0.275,0.446-1.198-0.194-0.857c-7.742,4.117-13.927,10.594-21.541,14.91
			c-0.262-1.06-0.519-2.124-0.776-3.193c-0.495-1.492-0.986-2.985-1.472-4.479c0.179-0.069,0.354-0.153,0.518-0.26
			c0.081-0.043,0.145-0.122,0.19-0.207c0.041-0.017,0.082-0.036,0.124-0.053c0.487-0.111,0.979-0.714,1.356-1.013
			c1.319-1.041,2.738-1.948,4.168-2.824c3.195-1.956,6.495-3.747,9.712-5.668c3.231-1.933,6.497-3.806,9.743-5.714
			c3.451-2.028,7.107-3.944,10.279-6.396c0.438-0.338,0.57-1.407-0.23-1.011c-3.875,1.924-7.522,4.418-11.243,6.624
			c-3.936,2.333-7.855,4.694-11.723,7.139c-3.506,2.216-7.15,4.12-10.43,6.686c-0.815,0.637-1.564,1.247-2.431,1.794
			c-0.08,0.049-0.171,0.119-0.257,0.199c-1.313-4.069-2.579-8.152-3.736-12.268c-4.123,1.312-8.349,2.281-12.537,3.381
			c-4.134,1.087-8.268,2.179-12.441,3.096c-3.296,0.924-6.59,1.846-9.885,2.77c0.151-0.277,0.187-0.595-0.001-0.842
			c-1.043-1.377-2.438-2.482-3.549-3.824c-1.357-1.637-2.679-3.291-4.077-4.895c-0.564-0.649-1.142-1.287-1.724-1.922
			c0.126-0.088,0.252-0.189,0.378-0.318c3.535-3.641,5.797-8.233,7.886-12.803c2.327-5.093,4.769-10.058,7.359-15.021
			c6.226-11.93,12.364-23.903,18.584-35.835c12.374-23.734,25.472-46.961,39.312-69.87c8.397-13.898,16.857-27.756,25.049-41.776
			c3.933-6.731,7.841-13.515,11.58-20.389C405.067,22.442,404.925,24.701,404.781,26.958z"/>
		<path d="M193.527,173.644c-6.262,6.443-11.488,13.694-16.396,21.196c-5.025,7.684-10.105,15.414-14.865,23.263
			c-0.38,0.627,0.354,0.756,0.705,0.296c5.417-7.102,9.739-15.107,14.565-22.614c4.908-7.635,10.176-15.104,16.363-21.767
			C194.226,173.666,193.866,173.296,193.527,173.644z"/>
		<path d="M186.728,193.13c-3.132,4.362-6.39,8.627-9.706,12.849c-3.286,4.185-7.159,8.2-10.006,12.691
			c-0.302,0.478,0.204,0.733,0.56,0.373c3.596-3.621,6.58-8.076,9.711-12.103c3.455-4.443,6.839-8.941,10.085-13.541
			C187.755,192.857,187.04,192.693,186.728,193.13z"/>
		<path d="M190.922,199.25c-1.981,3.248-4.73,5.854-7.314,8.61c-2.391,2.553-4.516,5.511-6.617,8.305
			c-0.29,0.384,0.099,0.799,0.484,0.485c2.906-2.351,4.692-5.924,7.175-8.686c2.441-2.717,5.01-5.289,6.858-8.47
			C191.807,198.98,191.18,198.825,190.922,199.25z"/>
		<path d="M198.724,200.096c-4.172,5.338-9.279,10.006-12.89,15.773c-0.417,0.667,0.399,0.843,0.765,0.321
			c3.892-5.557,8.628-10.423,12.651-15.875C199.575,199.877,198.989,199.756,198.724,200.096z"/>
		<path d="M254.575,190.828c-4.451,4.286-9.719,8.23-13.235,13.372c-0.395,0.579,0.273,0.933,0.697,0.465
			c4.195-4.618,8.607-8.942,12.968-13.406C255.396,190.859,254.977,190.44,254.575,190.828z"/>
		<path d="M308.928,166.944c-0.341,1.812-0.957,3.51-1.732,5.178c-0.681,1.462-1.039,3.078-1.509,4.623
			c-1.099,3.603-2.28,7.182-3.369,10.787c-1.017,3.366-1.718,6.823-2.496,10.25c-0.762,3.357-2.007,6.641-2.684,9.997
			c-0.118,0.592,0.628,0.212,0.777-0.052c1.57-2.814,2.189-6.316,2.88-9.433c0.761-3.419,1.423-6.857,2.326-10.243
			c0.958-3.592,2.131-7.13,3.195-10.691c1.038-3.472,2.612-6.935,3.165-10.525C309.542,166.433,308.979,166.669,308.928,166.944z"/>
		<path d="M315.5,158.355c-1.012,5.32-3.531,10.054-5.084,15.192c-1.59,5.254-2.551,10.639-4.489,15.795
			c-0.305,0.813,0.759,0.625,1.002,0.07c2.148-4.879,2.992-10.211,4.329-15.341c1.403-5.391,4.027-10.324,4.976-15.859
			C316.325,157.682,315.57,157.989,315.5,158.355z"/>
		<path d="M326.648,141.325c-3.764,8.233-7.592,16.722-9.319,25.66c-0.137,0.705,0.847,0.268,0.963-0.189
			c2.239-8.777,5.376-17.133,9.004-25.424C327.521,140.859,326.812,140.968,326.648,141.325z"/>
		<path d="M331.616,133.09c-0.435,3.069-1.876,5.862-2.827,8.786c-1.153,3.55-2.693,7.003-3.89,10.549
			c-0.226,0.667,0.621,0.515,0.813,0.058c1.457-3.454,2.494-7.068,3.883-10.55c1.125-2.816,2.353-5.955,2.728-8.981
			C332.386,132.435,331.667,132.729,331.616,133.09z"/>
		<path d="M393.182,103.527c-5.076,3.932-9.303,8.816-14.542,12.572c-0.355,0.255-0.227,0.835,0.22,0.526
			c5.279-3.652,9.984-8.183,14.716-12.504C393.967,103.767,393.658,103.158,393.182,103.527z"/>
		<path d="M390.224,125.083c-9.542,6.848-17.008,16.177-26.151,23.519c-0.309,0.247-0.201,0.792,0.202,0.487
			c9.36-7.085,17.497-15.67,26.46-23.238C391.263,125.402,390.848,124.635,390.224,125.083z"/>
		<path d="M387.751,168.451c-5.519,3.689-10.943,7.827-16.034,12.09c-4.716,3.949-8.656,8.854-13.928,12.113
			c-0.48,0.295-0.306,1.011,0.276,0.666c5.031-2.962,8.999-7.383,13.367-11.186c5.326-4.635,11.342-8.479,16.759-13.019
			C388.654,168.727,388.298,168.085,387.751,168.451z"/>
		<path d="M387.587,181.275c-0.51,0.142-0.751,0.3-1.105,0.705c-0.017,0.021-0.029,0.042-0.042,0.064
			c-1.904,1.432-3.72,2.979-5.69,4.339c-2.412,1.662-4.875,3.245-7.247,4.967c-5.445,3.952-10.705,8.149-16.135,12.122
			c-0.457,0.334-0.292,1.092,0.286,0.686c5.486-3.852,10.822-7.91,16.255-11.834c2.569-1.855,5.247-3.548,7.864-5.332
			c2.138-1.457,4.503-3.014,6.084-5.096C388.036,181.658,387.992,181.16,387.587,181.275z"/>
		<path d="M384.133,190.891c-4.32,1.411-8.37,5.088-11.799,7.964c-4.008,3.364-7.85,6.927-12.031,10.08
			c-0.385,0.292-0.243,0.944,0.244,0.588c3.877-2.848,7.477-6.038,11.174-9.109c1.951-1.621,3.948-3.183,6.018-4.648
			c2.112-1.494,4.472-2.595,6.573-4.08C384.707,191.407,384.773,190.682,384.133,190.891z"/>
	</g>
</g>
</svg>
